<svg width="491" height="745" viewBox="0 0 491 745" fill="none" xmlns="http://www.w3.org/2000/svg">
<g filter="url(#filter0_f_223_470)">
<path d="M169.153 584.799V600.113H178.3L182.636 592.059L169.153 584.799ZM45.314 584.799V569.485H30V584.799H45.314ZM45.314 646.718H30V649.536L31.0033 652.17L45.314 646.718ZM50.8175 704.182C53.8284 712.086 62.6763 716.052 70.5799 713.041C78.4835 710.031 82.4498 701.183 79.4389 693.279L50.8175 704.182ZM330.144 307.399L316.672 314.682L321.013 322.713H330.144V307.399ZM445.314 322.713C453.772 322.713 460.628 315.857 460.628 307.399C460.628 298.942 453.772 292.086 445.314 292.086V322.713ZM203.828 283.87L193.665 272.414L190.264 275.431L189.06 279.816L203.828 283.87ZM154.385 406.132C152.146 414.288 156.943 422.715 165.099 424.953C173.255 427.192 181.682 422.396 183.921 414.24L154.385 406.132ZM323.952 568.7H339.266V562.664L335.147 558.251L323.952 568.7ZM323.952 698.731H308.638V714.045H323.952V698.731ZM445.314 714.045C453.772 714.045 460.628 707.188 460.628 698.731C460.628 690.273 453.772 683.417 445.314 683.417V714.045ZM265.294 153.839V215.759H295.922V153.839H265.294ZM265.306 215.147C264.087 245.621 260.106 296.503 253.06 346.436C245.913 397.093 235.925 444.256 223.567 468.972L250.962 482.669C265.848 452.896 276.294 400.988 283.388 350.716C290.584 299.72 294.652 247.816 295.91 216.371L265.306 215.147ZM224.522 467.326C196.762 508.966 167.598 555.386 155.669 577.539L182.636 592.059C193.825 571.281 222.287 525.895 250.006 484.315L224.522 467.326ZM169.153 569.485H45.314V600.113H169.153V569.485ZM30 584.799V646.718H60.6279V584.799H30ZM31.0033 652.17L50.8175 704.182L79.4389 693.279L59.6247 641.267L31.0033 652.17ZM267.136 223.041L316.672 314.682L343.615 300.117L294.08 208.477L267.136 223.041ZM330.144 322.713H445.314V292.086H330.144V322.713ZM270.446 204.303L193.665 272.414L213.99 295.326L290.771 227.215L270.446 204.303ZM189.06 279.816L154.385 406.132L183.921 414.24L218.596 287.924L189.06 279.816ZM226.069 486.269L312.756 579.149L335.147 558.251L248.46 465.372L226.069 486.269ZM308.638 568.7V698.731H339.266V568.7H308.638ZM323.952 714.045H445.314V683.417H323.952V714.045Z" fill="white" fill-opacity="0.5"></path>
<circle cx="278.131" cy="91.9195" r="61.9195" fill="white" fill-opacity="0.5"></circle>
</g>
<path d="M179.153 582.799V598.113H188.3L192.636 590.059L179.153 582.799ZM55.314 582.799V567.485H40V582.799H55.314ZM55.314 644.718H40V647.536L41.0033 650.17L55.314 644.718ZM60.8175 702.182C63.8284 710.086 72.6763 714.052 80.5799 711.041C88.4835 708.03 92.4498 699.182 89.4389 691.279L60.8175 702.182ZM340.144 305.399L326.672 312.681L331.013 320.713H340.144V305.399ZM455.314 320.713C463.772 320.713 470.628 313.857 470.628 305.399C470.628 296.942 463.772 290.085 455.314 290.085V320.713ZM213.828 281.87L203.665 270.414L200.264 273.431L199.06 277.816L213.828 281.87ZM164.385 404.132C162.146 412.288 166.943 420.714 175.099 422.953C183.255 425.192 191.682 420.396 193.921 412.24L164.385 404.132ZM333.952 566.7H349.266V560.663L345.147 556.251L333.952 566.7ZM333.952 696.731H318.638V712.045H333.952V696.731ZM455.314 712.045C463.772 712.045 470.628 705.188 470.628 696.731C470.628 688.273 463.772 681.417 455.314 681.417V712.045ZM275.294 135.912V213.758H305.922V135.912H275.294ZM275.306 213.146C274.087 243.621 270.106 294.503 263.06 344.436C255.913 395.093 245.925 442.256 233.567 466.972L260.962 480.669C275.848 450.896 286.294 398.988 293.388 348.715C300.584 297.72 304.652 245.816 305.91 214.371L275.306 213.146ZM234.522 465.326C206.762 506.966 177.598 553.386 165.669 575.538L192.636 590.059C203.825 569.281 232.287 523.895 260.006 482.315L234.522 465.326ZM179.153 567.485H55.314V598.113H179.153V567.485ZM40 582.799V644.718H70.6279V582.799H40ZM41.0033 650.17L60.8175 702.182L89.4389 691.279L69.6247 639.267L41.0033 650.17ZM277.136 221.041L326.672 312.681L353.615 298.117L304.08 206.476L277.136 221.041ZM340.144 320.713H455.314V290.085H340.144V320.713ZM280.446 202.303L203.665 270.414L223.99 293.326L300.771 225.214L280.446 202.303ZM199.06 277.816L164.385 404.132L193.921 412.24L228.596 285.924L199.06 277.816ZM236.069 484.269L322.756 577.149L345.147 556.251L258.46 463.371L236.069 484.269ZM318.638 566.7V696.731H349.266V566.7H318.638ZM333.952 712.045H455.314V681.417H333.952V712.045Z" fill="white"></path>
<circle cx="288.131" cy="89.9195" r="61.9195" fill="white"></circle>
<defs>
<filter id="filter0_f_223_470" x="0" y="0" width="490.628" height="744.049" filterUnits="userSpaceOnUse" color-interpolation-filters="sRGB">
<feFlood flood-opacity="0" result="BackgroundImageFix"></feFlood>
<feBlend mode="normal" in="SourceGraphic" in2="BackgroundImageFix" result="shape"></feBlend>
<feGaussianBlur stdDeviation="15" result="effect1_foregroundBlur_223_470"></feGaussianBlur>
</filter>
</defs>
</svg>